<?xml version="1.0" standalone="no"?>
<!DOCTYPE svg PUBLIC "-//W3C//DTD SVG 20010904//EN"
 "http://www.w3.org/TR/2001/REC-SVG-20010904/DTD/svg10.dtd">
<svg version="1.0" xmlns="http://www.w3.org/2000/svg"
 width="250.000000pt" height="250.000000pt" viewBox="0 0 250.000000 250.000000"
 preserveAspectRatio="xMidYMid meet">

<g transform="translate(0.000000,250.000000) scale(0.100000,-0.100000)"
fill="#000000" stroke="none">
<path d="M0 1250 l0 -1250 1250 0 1250 0 0 1250 0 1250 -1250 0 -1250 0 0
-1250z m1683 656 c34 -14 87 -69 87 -90 0 -6 -14 -17 -31 -23 -29 -11 -33 -10
-64 22 -26 28 -40 35 -71 35 -84 0 -114 -52 -114 -198 0 -116 12 -157 51 -177
67 -35 139 -6 159 63 16 58 14 61 -42 64 l-53 3 0 35 0 35 90 0 90 0 0 -80
c-1 -69 -4 -87 -27 -127 -75 -126 -283 -111 -332 25 -35 99 -27 290 15 352 35
50 84 74 152 75 32 0 72 -6 90 -14z m-624 -306 c127 -21 206 -86 231 -190 29
-122 -49 -263 -174 -315 l-36 -15 56 -88 c107 -166 226 -296 283 -308 47 -10
51 -13 51 -33 0 -26 -34 -35 -109 -28 -67 6 -124 32 -168 79 -44 47 -129 168
-193 276 l-54 92 -58 0 -58 0 0 -142 c0 -152 10 -212 38 -227 9 -4 38 -12 65
-15 41 -6 47 -10 47 -32 l0 -24 -195 0 -195 0 0 23 c0 19 9 26 47 38 32 9 52
22 60 39 17 33 18 721 2 768 -10 30 -48 52 -90 52 -14 0 -19 7 -19 25 l0 24
138 4 c75 1 166 4 202 5 36 1 94 -3 129 -8z"/>
<path d="M830 1336 l0 -196 78 0 c96 0 143 13 187 51 96 85 82 263 -25 316
-24 12 -66 19 -137 21 l-103 4 0 -196z"/>
</g>
</svg>
